<?xml version="1.0" encoding="UTF-8"?>
<svg version="1.1" xmlns="http://www.w3.org/2000/svg" width="2971" height="503">
<path d="M0 0 C172 0 172 0 192 4 C193.61374107 4.08715929 195.23042807 4.12846269 196.84651977 4.13061053 C197.80237817 4.13429124 198.75823657 4.13797195 199.74306038 4.14176419 C200.78718896 4.14074153 201.83131754 4.13971886 202.90708637 4.1386652 C204.58469759 4.14292853 204.58469759 4.14292853 206.29619995 4.14727798 C210.07062766 4.1556472 213.84502477 4.15689494 217.61946106 4.15821838 C220.34202179 4.16222997 223.06457902 4.16774001 225.78713721 4.17318195 C231.72023149 4.18424439 237.6533215 4.19161285 243.58642387 4.19658089 C252.40876211 4.20398485 261.23108549 4.21706753 270.05341498 4.23132664 C284.89319368 4.25514999 299.73297502 4.27434878 314.57276344 4.29092598 C329.26928888 4.3073582 343.96580939 4.32583725 358.66232872 4.34705925 C359.57558755 4.34837686 360.48884638 4.34969446 361.42977972 4.351052 C366.06762457 4.35775394 370.70546936 4.36449254 375.34331413 4.37124526 C408.20632899 4.41902793 441.06934845 4.46220732 473.93237305 4.50268555 C505.86141291 4.54202388 537.79044896 4.5834436 569.71948242 4.62768555 C570.70340764 4.62904808 571.68733285 4.63041061 572.70107398 4.63181442 C582.58191649 4.64549962 592.46275893 4.65922717 602.34360134 4.67298577 C622.47261275 4.70101347 642.60162455 4.72875841 662.7306366 4.7563324 C663.65616735 4.7576006 664.5816981 4.7588688 665.53527523 4.76017542 C727.35684396 4.84485337 789.17842137 4.92293931 851 5 C851.03484305 8.34242137 851.05570857 11.68479518 851.07421875 15.02734375 C851.08914368 16.43469788 851.08914368 16.43469788 851.10437012 17.8704834 C851.17544592 35.01471496 845.9011815 51.23693222 834.16015625 64 C823.86855957 73.76544143 810.72376737 76.30888999 796.98983765 76.2784729 C796.03390925 76.2842653 795.07798085 76.2900577 794.09308493 76.29602563 C790.91797858 76.31291218 787.74301858 76.31589231 784.56787109 76.31884766 C782.28070728 76.32815366 779.99354684 76.33832333 777.70639038 76.34928894 C771.51710445 76.37652706 765.3278412 76.39172004 759.13851118 76.40471697 C752.66292191 76.42037458 746.18737877 76.44715642 739.71182251 76.4727478 C728.84939929 76.51418247 717.9869741 76.54879001 707.12451172 76.578125 C695.94024844 76.60834785 684.75601046 76.64271518 673.57177734 76.68261719 C672.53624374 76.68630951 672.53624374 76.68630951 671.47979026 76.69007643 C668.01619182 76.70245175 664.55259369 76.71490815 661.0889957 76.72740483 C632.39269956 76.83083655 603.69637033 76.91993818 575 77 C575.54287659 77.60319061 576.08575317 78.20638123 576.64508057 78.82785034 C577.71843658 80.02657272 577.71843658 80.02657272 578.81347656 81.24951172 C579.52135315 82.03832733 580.22922974 82.82714294 580.95855713 83.63986206 C601.61980305 107.52658996 614.06026265 139.33103139 620 170 C620.18618896 170.90202148 620.37237793 171.80404297 620.56420898 172.73339844 C622.35052164 182.50927047 622.33778722 192.25956314 622.31567383 202.16308594 C622.31252819 205.09869064 622.33599682 208.03327013 622.36132812 210.96875 C622.4183365 227.5257221 620.50449397 243.30364748 615.9375 259.25 C615.64149902 260.2908374 615.34549805 261.3316748 615.04052734 262.40405273 C606.13186641 292.4497938 589.76430575 321.27305502 567 343 C566.195625 343.804375 565.39125 344.60875 564.5625 345.4375 C563.716875 346.283125 562.87125 347.12875 562 348 C561.46246094 348.57234375 560.92492188 349.1446875 560.37109375 349.734375 C551.5820331 358.90875982 541.42764323 366.08441412 530.46875 372.42529297 C527.1134288 374.42174291 524.98625797 376.01651142 522.44140625 379.07421875 C519.67442215 382.3901725 517.32277771 383.72815387 513.4375 385.5625 C512.53028198 385.9968335 512.53028198 385.9968335 511.60473633 386.43994141 C506.55752708 388.82618235 501.41544419 390.98617682 496.23046875 393.0546875 C494.06848048 393.80647859 494.06848048 393.80647859 493 395 C490.68921289 395.13700319 488.37597529 395.23288187 486.0625 395.3125 C479.15786501 395.63820507 472.68712087 396.73302359 465.99633789 398.45239258 C453.14484941 401.65116814 440.06659773 402.38341317 426.875 402.3125 C425.80616074 402.30976578 425.80616074 402.30976578 424.71572876 402.30697632 C372.75050265 402.08477589 325.42199209 381.72099245 288 346 C287.14664063 345.19949219 286.29328125 344.39898437 285.4140625 343.57421875 C278.52893278 336.93886503 272.65149184 329.68916061 267 322 C266.58250488 321.43216797 266.16500977 320.86433594 265.73486328 320.27929688 C239.1517931 283.54172587 230.1936984 242.53077342 229 198 C227.97003906 198.58007812 226.94007813 199.16015625 225.87890625 199.7578125 C205.09152076 211.25102777 184.88814645 216.58065133 161.14135742 216.33618164 C158.6713846 216.31234447 156.20248282 216.31568529 153.73242188 216.32226562 C137.44346028 216.29368029 122.52955418 215.28667127 110.2578125 203.4765625 C98.07745398 190.11610004 95.76426503 171.41601245 96 154 C96.88558594 153.98018066 97.77117188 153.96036133 98.68359375 153.93994141 C133.70305046 154.43179817 133.70305046 154.43179817 165 141 C165.83402344 140.38253906 166.66804688 139.76507813 167.52734375 139.12890625 C175.12814377 132.58477353 179.29379208 122.88991178 180.17578125 113.03613281 C180.9502658 101.01502626 179.62632296 90.42549356 171.75390625 80.77734375 C155.82711635 64.6377237 130.93395551 65.52874701 110 65.3125 C107.76039768 65.27924982 105.52081351 65.24475337 103.28125 65.20898438 C97.85429167 65.12497645 92.42731321 65.05626887 87 65 C87.0018986 65.57196391 87.0037972 66.14392782 87.00575334 66.73322397 C87.11779309 100.67870841 87.20350806 134.62415061 87.25532665 168.56977985 C87.26157972 172.65125654 87.26805138 176.73273285 87.2746582 180.81420898 C87.27596976 181.62671216 87.27728131 182.43921534 87.2786326 183.27633982 C87.30035279 196.4094798 87.33975549 209.54250966 87.38576398 222.67558444 C87.43262317 236.16460803 87.46031533 249.65357419 87.47044247 263.14267582 C87.47728209 271.45735574 87.49883567 279.77172433 87.53958233 288.08630835 C87.56613775 293.7981838 87.57397227 299.50989974 87.56750689 305.22183234 C87.56432366 308.51093962 87.57177675 311.79939582 87.59602737 315.0884304 C87.74490406 336.33112901 85.47580269 353.81033579 70.5625 370.25 C56.10225716 383.87642004 37.71770075 386.51117014 18.58984375 386.30078125 C12.35496955 385.96529186 6.17128789 384.94942891 0 384 C0 257.28 0 130.56 0 0 Z M313 77 C312.05511719 77.82371094 311.11023437 78.64742187 310.13671875 79.49609375 C304.66909854 84.35702268 299.58730987 89.30061502 295 95 C294.21882813 95.96679688 293.43765625 96.93359375 292.6328125 97.9296875 C290.00714382 101.22789411 287.49357884 104.60138118 285 108 C284.26007812 108.98613281 283.52015625 109.97226563 282.7578125 110.98828125 C277.09109448 119.23175218 275.20837125 127.31093612 273.1328125 136.9765625 C270.95278147 147.01667112 266.76237853 155.89685305 261.76635742 164.80224609 C248.1460845 189.22733509 253.57627533 225.93336554 260.8125 251.8125 C273.85793862 295.95238059 302.55508766 333.283187 342.8984375 355.79296875 C379.34001778 375.58113869 424.34179273 383.74372856 465 373 C462.74887951 365.84544873 459.96391743 359.04649845 456.9375 352.1875 C456.49083984 351.16462891 456.04417969 350.14175781 455.58398438 349.08789062 C453.79968639 345.01521048 452.02137433 340.9616175 450 337 C443.62407077 341.61270929 438.09717604 346.77080969 432.67578125 352.44921875 C427.32323871 357.5517155 423.3666744 359.6804234 415.9375 359.5625 C415.24333984 359.58634766 414.54917969 359.61019531 413.83398438 359.63476562 C410.16413195 359.6243102 408.21555368 359.15974889 405.25390625 356.96484375 C398.56450309 348.16543821 398.42748061 340.6201553 398.49829102 329.94873047 C398.49450386 328.32183363 398.48900055 326.69494003 398.48191833 325.0680542 C398.46800033 320.66730082 398.47910667 316.26693999 398.49562955 311.86620855 C398.50951616 307.25391198 398.50301604 302.64163735 398.49949646 298.02932739 C398.49679773 290.28722838 398.51024274 282.54528471 398.53344727 274.80322266 C398.56007368 265.85764703 398.56179688 256.91233074 398.5500589 247.96672904 C398.53927446 239.35110848 398.54547221 230.73558155 398.55961418 222.11996841 C398.5653663 218.45741685 398.56529744 214.79493399 398.56054878 211.13238144 C398.5557712 206.81978803 398.56591294 202.50747815 398.58750343 198.19493866 C398.59306014 196.61393057 398.59354684 195.03289518 398.58855057 193.45188522 C398.58257843 191.29084255 398.59513839 189.13066123 398.61231995 186.96969604 C398.61596479 185.15736638 398.61596479 185.15736638 398.61968327 183.308424 C399.04233752 179.63170045 400.23251089 177.22101318 402 174 C402 173.34 402 172.68 402 172 C402.556875 171.731875 403.11375 171.46375 403.6875 171.1875 C406.04897122 170.06822588 406.04897122 170.06822588 408.0625 168.375 C412.91173028 166.10514753 416.78199549 165.59340748 422 167 C426.4860716 169.97832682 430.28747211 173.47447823 434.14990234 177.21191406 C435.99934117 178.99936326 437.87794006 180.74948284 439.76953125 182.4921875 C442.30984788 184.83681827 444.8368598 187.19432167 447.3515625 189.56640625 C450.69086482 192.71511715 454.05857355 195.83142239 457.4375 198.9375 C461.00404235 202.21905229 464.55518009 205.51587331 468.0859375 208.8359375 C468.7879126 209.49601807 469.4898877 210.15609863 470.21313477 210.83618164 C471.56639533 212.11012562 472.91853321 213.38526376 474.26928711 214.66186523 C477.44584995 217.65293535 480.65309389 220.59009547 483.94921875 223.44921875 C488.99039104 227.8286108 493.80606443 232.43855307 498.64453125 237.0390625 C502.73832084 240.91581389 506.89261213 244.69629917 511.15087891 248.39160156 C519.38828108 255.55664058 527.2451922 263.13200876 535 270.8125 C535.71792725 271.51745605 536.43585449 272.22241211 537.17553711 272.94873047 C548.70195407 284.45479951 548.70195407 284.45479951 549.25 292.8125 C549.15957276 296.92693963 548.4343977 299.57662824 546 303 C535.15551737 313.01904957 516.75508372 311.64362008 503 312 C505.47606097 320.21480157 509.03417624 327.82610753 512.6875 335.5625 C513.3005845 336.87022983 513.91321822 338.17817108 514.52539062 339.48632812 C516.01174159 342.66000484 517.50416 345.83078263 519 349 C523.87438595 347.19472966 527.26708764 344.70613361 531.25 341.4375 C532.28858154 340.58671875 532.28858154 340.58671875 533.34814453 339.71875 C550.18122002 325.66284858 564.0461071 310.03100584 575 291 C575.33241699 290.43087891 575.66483398 289.86175781 576.00732422 289.27539062 C598.67047711 250.17629871 602.82996007 203.74550528 591.87109375 160.3828125 C581.75529674 122.83894841 558.07590607 89.98709121 527 67 C526.43071777 66.5757373 525.86143555 66.15147461 525.27490234 65.71435547 C500.19863402 47.29053387 467.44789139 35.11451148 436.15234375 34.76171875 C435.42694901 34.75183426 434.70155426 34.74194977 433.95417786 34.73176575 C388.68968381 34.24267592 347.46402495 46.7037176 313 77 Z M276 76 C276.33 76.66 276.66 77.32 277 78 C277.33 77.34 277.66 76.68 278 76 C277.34 76 276.68 76 276 76 Z M417 186 C417 237.15 417 288.3 417 341 C423.6646665 336.05871058 423.6646665 336.05871058 429.5 330.5625 C432.77201129 327.21258367 436.12100612 324.07906967 439.6796875 321.0390625 C441.59488745 319.356008 443.46236699 317.64359037 445.3203125 315.8984375 C445.90586914 315.34969971 446.49142578 314.80096191 447.09472656 314.2355957 C448.26971151 313.13134833 449.4410261 312.02318077 450.60839844 310.91088867 C454.77918202 307 454.77918202 307 457 307 C457.28148392 307.66319244 457.56296783 308.32638489 457.85298157 309.00967407 C460.51376629 315.27769378 463.17638867 321.54492996 465.84104633 327.81130409 C467.21071018 331.03246823 468.57967666 334.25392492 469.94702148 337.47607422 C471.52116901 341.18546762 473.09839916 344.8935434 474.67578125 348.6015625 C475.40720085 350.32688705 475.40720085 350.32688705 476.15339661 352.08706665 C476.61364731 353.16773407 477.07389801 354.24840149 477.5480957 355.36181641 C477.9500264 356.30779694 478.35195709 357.25377747 478.7660675 358.22842407 C480.08927697 361.2005279 481.52514627 364.10055664 483 367 C490.15129696 365.12849037 496.49405457 362.50213658 503 359 C501.04456209 352.73325888 498.68861779 346.78839981 495.9453125 340.828125 C495.5618869 339.98384949 495.1784613 339.13957397 494.78341675 338.26971436 C493.5681857 335.59452058 492.34724452 332.92199595 491.125 330.25 C489.91014766 327.59217681 488.69678878 324.93372222 487.48800659 322.27313232 C486.74023038 320.62733284 485.98917019 318.98301907 485.23391724 317.34063721 C482.18626751 310.63484405 479.66049019 303.9172745 477 297 C494.16 295.35 511.32 293.7 529 292 C526.95684018 287.91368035 525.30732263 286.23509735 521.9375 283.25 C520.8478165 282.27340798 519.75934615 281.29546121 518.671875 280.31640625 C517.78725586 279.52194092 517.78725586 279.52194092 516.88476562 278.71142578 C513.44108068 275.58445279 510.06813506 272.38230167 506.6875 269.1875 C499.42833508 262.34002476 492.14309932 255.5213201 484.84277344 248.71777344 C481.72706096 245.81340764 478.61364547 242.90658137 475.5 240 C471.76228583 236.51111038 468.0243238 233.02248826 464.28515625 229.53515625 C457.84900429 223.53168678 451.41953802 217.52123416 445 211.5 C443.67059327 210.25388454 442.34116621 209.00779076 441.01171875 207.76171875 C438.28305263 205.2040535 435.55702175 202.64361168 432.83203125 200.08203125 C431.49226382 198.82543945 430.1524228 197.56892612 428.8125 196.3125 C428.20083984 195.73628906 427.58917969 195.16007813 426.95898438 194.56640625 C426.38083984 194.025 425.80269531 193.48359375 425.20703125 192.92578125 C424.7066333 192.45567627 424.20623535 191.98557129 423.69067383 191.5012207 C421.53166385 189.58414455 419.25460302 187.80368242 417 186 Z " fill="#0E65B4" transform="translate(2120,7)"/>
<path d="M0 0 C16.72141361 14.68017081 25.81183238 33.63218212 33.0234375 54.30078125 C33.54833968 55.78134717 34.07400684 57.26164204 34.6003418 58.74169922 C36.15006174 63.11097512 37.68406555 67.48565986 39.2166748 71.86096191 C40.46642898 75.42267271 41.72144283 78.98251469 42.97753906 82.54199219 C45.63135882 90.06307762 48.27901339 97.58631605 50.92276382 105.11094666 C51.64899317 107.17736234 52.37590734 109.24353625 53.10287476 111.30969238 C54.47243178 115.20372732 55.83617684 119.09977352 57.19921875 122.99609375 C57.61732819 124.18403534 58.03543762 125.37197693 58.46621704 126.59591675 C58.84515106 127.68204254 59.22408508 128.76816833 59.61450195 129.88720703 C59.94835403 130.84007599 60.28220612 131.79294495 60.62617493 132.77468872 C61.3359375 135.05078125 61.3359375 135.05078125 61.3359375 137.05078125 C42.09826699 145.2438157 22.6401617 151.04956799 2.2109375 155.48828125 C1.01919922 155.74754395 -0.17253906 156.00680664 -1.40039062 156.27392578 C-6.60355105 157.36228093 -11.32829041 158.18583278 -16.6640625 158.05078125 C-23.36927163 138.51357271 -29.40994569 118.78773545 -35.41174316 99.02636719 C-36.6836302 94.84108905 -37.95918055 90.6569276 -39.234375 86.47265625 C-41.71441822 78.33308779 -44.19056471 70.19234116 -46.6640625 62.05078125 C-48.29201915 66.86462622 -49.89424177 71.66961539 -51.2578125 76.56640625 C-56.53907258 95.24146547 -62.24096935 113.78098136 -68.00643921 132.31089783 C-68.66547426 134.43032139 -69.32324416 136.55013402 -69.98071289 138.67004395 C-71.02778148 142.04512813 -72.07832796 145.41911006 -73.13169861 148.79223251 C-73.71764958 150.67064613 -74.3008022 152.54993193 -74.88391113 154.42922974 C-75.23546265 155.55134857 -75.58701416 156.67346741 -75.94921875 157.82958984 C-76.41146851 159.31149307 -76.41146851 159.31149307 -76.88305664 160.82333374 C-77.6640625 163.05078125 -77.6640625 163.05078125 -78.6640625 164.05078125 C-83.44883992 164.31581035 -88.24759636 164.24435999 -93.0390625 164.23828125 C-93.75502594 164.23834167 -94.47098938 164.2384021 -95.20864868 164.23846436 C-105.28369377 164.22638514 -115.30024058 163.92614783 -125.3515625 163.17578125 C-126.40456543 163.09739014 -127.45756836 163.01899902 -128.54248047 162.93823242 C-135.97525432 162.32188776 -143.30690046 161.26517863 -150.6640625 160.05078125 C-149.74637781 164.61947368 -148.82237701 169.18683199 -147.89306641 173.75317383 C-147.57924853 175.29939067 -147.26701485 176.84593009 -146.95654297 178.39282227 C-145.08086924 187.73173499 -142.99507969 196.9378481 -140.40722656 206.10717773 C-139.6640625 209.05078125 -139.6640625 209.05078125 -139.6640625 212.05078125 C-136.3640625 210.07078125 -133.0640625 208.09078125 -129.6640625 206.05078125 C-131.9740625 196.48078125 -134.2840625 186.91078125 -136.6640625 177.05078125 C-127.66446711 177.80074753 -118.77885314 178.749498 -109.83984375 179.9453125 C-96.95982952 181.61650701 -84.14848063 182.26114527 -71.1640625 182.23828125 C-70.46752563 182.23734467 -69.77098877 182.23640808 -69.05334473 182.23544312 C-20.69185303 182.09558639 32.5035257 170.87240773 72.796875 142.69921875 C75.3359375 141.05078125 75.3359375 141.05078125 78.3359375 141.05078125 C79.15796549 145.46572828 79.9667709 149.88300386 80.7734375 154.30078125 C81.11858398 156.15316406 81.11858398 156.15316406 81.47070312 158.04296875 C82.86212548 165.70587445 83.86104896 173.27594567 84.3359375 181.05078125 C85.4909375 181.23640625 86.6459375 181.42203125 87.8359375 181.61328125 C102.40371529 184.85823649 120.52103597 193.20071603 128.86157227 205.90844727 C129.40575806 206.78327759 129.40575806 206.78327759 129.9609375 207.67578125 C130.34628662 208.29187256 130.73163574 208.90796387 131.12866211 209.54272461 C136.90249398 219.02751664 139.77346307 227.81194499 138.3359375 239.05078125 C136.99566753 243.56612927 135.42299073 246.30192236 131.5234375 248.98828125 C129.14813815 250.77718806 129.14813815 250.77718806 129.13671875 253.0078125 C129.48098549 256.97025519 130.39862905 260.43983738 131.8984375 264.11328125 C133.60639323 268.37892194 133.93838987 271.45708191 133.3359375 276.05078125 C130.80140093 279.2703277 129.22296445 280.7551056 125.3359375 282.05078125 C123.86007135 282.16765463 122.37887138 282.22579867 120.8984375 282.23828125 C120.13660156 282.25246094 119.37476563 282.26664062 118.58984375 282.28125 C116.09292168 282.02593215 114.53443439 281.21628775 112.3359375 280.05078125 C112.7170166 281.11361328 113.0980957 282.17644531 113.49072266 283.27148438 C120.48327832 302.78129736 127.45977983 322.2972203 134.34222412 341.84619141 C134.96237581 343.60571992 135.58415837 345.36467448 136.20758057 347.12304688 C137.076517 349.57525298 137.93945112 352.02948868 138.80078125 354.484375 C139.18874626 355.57370583 139.18874626 355.57370583 139.58454895 356.68504333 C140.60428464 359.60956708 141.3359375 361.92867946 141.3359375 365.05078125 C112.6259375 365.05078125 83.9159375 365.05078125 54.3359375 365.05078125 C61.92880454 349.86504717 61.92880454 349.86504717 65.04882812 344.0847168 C82.56348885 311.54645109 93.27185437 277.80950328 97.3359375 241.05078125 C99.3359375 242.05078125 99.3359375 242.05078125 101.3359375 245.05078125 C101.8515625 243.89578125 102.3671875 242.74078125 102.8984375 241.55078125 C104.56629958 238.12441241 106.48899422 235.70623228 109.1484375 232.98828125 C111.59887701 230.25733787 112.2863715 229.48861429 112.7109375 225.73828125 C109.53372149 217.21756559 104.6266158 209.29125933 96.3359375 205.05078125 C94.79256103 204.50726079 93.24214824 203.98350603 91.68701172 203.47460938 C90.87320038 203.20716919 90.05938904 202.939729 89.22091675 202.66418457 C88.5988736 202.46176147 87.97683044 202.25933838 87.3359375 202.05078125 C87.33229187 202.65703339 87.32864624 203.26328552 87.32489014 203.88790894 C87.28222852 210.34782794 87.21234144 216.80709016 87.12841797 223.26660156 C87.10063885 225.65943751 87.0792168 228.05235789 87.06494141 230.4453125 C86.7586359 278.96410524 74.87610138 328.60444966 40.1328125 364.3359375 C32.95731361 371.30098181 24.81367393 374.08628378 15.3359375 377.05078125 C14.53671875 377.30085938 13.7375 377.5509375 12.9140625 377.80859375 C-5.57543762 382.46375158 -24.92762979 378.65612344 -41.16015625 369.25 C-46.43981378 366.02824649 -51.10734583 362.22192959 -55.6640625 358.05078125 C-56.48132813 357.31472656 -57.29859375 356.57867187 -58.140625 355.8203125 C-69.85744848 344.71722739 -78.86728749 331.09872951 -86.6640625 317.05078125 C-87.08510254 316.29764648 -87.50614258 315.54451172 -87.93994141 314.76855469 C-99.0755429 294.67649824 -107.56428819 273.60038404 -115.2265625 251.98828125 C-115.48654022 251.25767487 -115.74651794 250.52706848 -116.01437378 249.77432251 C-118.66981034 242.27967232 -121.18810726 234.88469755 -122.6640625 227.05078125 C-125.6340625 228.70078125 -128.6040625 230.35078125 -131.6640625 232.05078125 C-130.27515222 239.5672369 -127.78200709 246.51594979 -125.03320312 253.62548828 C-124.29141862 255.54468534 -123.55901502 257.46725603 -122.828125 259.390625 C-120.5223595 265.42351829 -118.1822952 271.37902964 -115.26196289 277.14624023 C-113.94640013 281.33680989 -116.0279566 285.2023309 -117.6640625 289.05078125 C-118.1617906 290.2954401 -118.65916177 291.54024172 -119.15625 292.78515625 C-124.51617418 305.86762365 -131.56063793 317.19822707 -140.6640625 328.05078125 C-141.4271875 329.06140625 -142.1903125 330.07203125 -142.9765625 331.11328125 C-162.1918689 352.11605801 -190.70337095 363.03269786 -218.6640625 365.05078125 C-223.99974871 365.22745175 -229.32793273 365.1769972 -234.6640625 365.05078125 C-232.47265121 357.34645949 -229.84697153 349.84575413 -227.078125 342.33203125 C-226.38906469 340.45046077 -225.70000624 338.5688896 -225.01101971 336.6872921 C-224.27821553 334.68764083 -223.54402203 332.68850478 -222.80941772 330.68951416 C-220.46837307 324.31865225 -218.1361989 317.94454081 -215.80332756 311.57068253 C-215.26866366 310.1100177 -214.73388945 308.64939326 -214.19900703 307.18880844 C-208.7095566 292.19895516 -203.27531504 277.18953047 -197.8515625 262.17578125 C-191.14633418 243.62195545 -184.38809409 225.08878226 -177.56845093 206.57672119 C-171.37347758 189.75635262 -165.25579866 172.90879192 -159.1640625 156.05078125 C-152.35634656 137.21139868 -145.50051033 118.39100304 -138.57485962 99.59466553 C-132.9651496 84.36591167 -127.41736351 69.1153722 -121.90429115 53.85141468 C-120.32692895 49.48604057 -118.74260377 45.12323666 -117.15527344 40.76147461 C-111.81649437 26.09496337 -111.81649437 26.09496337 -106.67085266 11.35998535 C-105.52906866 8.02322647 -104.36356437 4.69505251 -103.19424438 1.36785889 C-102.6819564 -0.11255621 -102.18214725 -1.5973603 -101.69613647 -3.08660889 C-98.15942607 -13.92042356 -98.15942607 -13.92042356 -94.51538086 -16.42749023 C-92.19648146 -17.24659432 -90.10217675 -17.66844787 -87.6640625 -17.94921875 C-86.66503906 -18.19027344 -85.66601562 -18.43132813 -84.63671875 -18.6796875 C-54.8218418 -23.36202388 -23.78553721 -19.92132533 0 0 Z " fill="#0C6EBC" transform="translate(1052.6640625,26.94921875)"/>
<path d="M0 0 C6.62609268 7.01438056 11.7635801 14.57165558 16.20922852 23.09667969 C16.51828125 23.67442139 16.82733398 24.25216309 17.14575195 24.84741211 C23.43936386 37.52325479 25.91146195 51.91108745 28.10180664 65.76416016 C28.37335244 67.42863269 28.64585538 69.09294931 28.91922092 70.75712395 C29.65546479 75.25612794 30.37831516 79.75718966 31.09866834 84.25876141 C31.87352128 89.08567458 32.66099955 93.91052975 33.44688416 98.73565674 C34.96262117 108.05424516 36.46687028 117.37465119 37.96698409 126.69576597 C39.69561166 137.43393044 41.43604428 148.17017135 43.17690885 158.90635753 C46.6593856 180.38655831 50.1257131 201.86934287 53.58597678 223.35313165 C53.75050056 224.3745987 53.91502434 225.39606574 54.08453369 226.44848633 C54.24757124 227.4607345 54.41060879 228.47298267 54.57858688 229.51590502 C56.22567874 239.74059059 57.87712543 249.96457131 59.52905273 260.18847656 C62.2859413 277.25264253 65.0370123 294.31773717 67.78158569 311.38388824 C68.23435953 314.19913583 68.68743442 317.0143347 69.14077759 319.82949066 C70.41354562 327.73343201 71.68328837 335.63784499 72.94760323 343.54314423 C73.32273367 345.88605096 73.69888902 348.22879387 74.07615471 350.57135773 C74.58237267 353.71621553 75.08471577 356.86166686 75.5859375 360.00732422 C75.73367363 360.91983381 75.88140976 361.83234341 76.03362274 362.77250481 C76.16544701 363.60523478 76.29727127 364.43796474 76.43309021 365.29592896 C76.54768806 366.0115053 76.6622859 366.72708164 76.78035641 367.46434212 C77.02172852 369.47167969 77.02172852 369.47167969 77.02172852 373.47167969 C54.93943774 374.62046938 32.5318175 368.00486348 15.49047852 353.71386719 C-3.19293454 336.74507115 -12.26209174 314.91640022 -16.47827148 290.45605469 C-16.79535557 288.70140158 -17.11430279 286.94708445 -17.43481445 285.1930542 C-18.184466 281.07565138 -18.92338948 276.95647489 -19.65698242 272.83618164 C-21.18075202 264.30672931 -22.75587933 255.78690187 -24.32983398 247.26660156 C-27.2290263 231.56210605 -30.10907784 215.8541894 -32.9778595 200.14411163 C-33.30920837 198.32963454 -33.64056316 196.51515853 -33.97192383 194.70068359 C-34.13647788 193.79957084 -34.30103193 192.89845809 -34.47057247 191.97003889 C-35.82304079 184.56613739 -37.18077723 177.16320818 -38.53944397 169.76044202 C-39.8639158 162.54240628 -41.18433893 155.32363725 -42.50167847 148.10429645 C-43.28259255 143.82521272 -44.06519923 139.54645581 -44.85211182 135.26847076 C-45.58570844 131.27976208 -46.31427973 127.29016822 -47.03897667 123.2998333 C-47.304812 121.8410016 -47.57245293 120.38249757 -47.84205055 118.92435646 C-48.20999396 116.93275119 -48.57074575 114.93982132 -48.93115234 112.94683838 C-49.13461777 111.83439884 -49.33808319 110.7219593 -49.54771423 109.57580948 C-49.97472071 106.49727924 -50.05653203 103.57520116 -49.97827148 100.47167969 C-50.63827148 100.47167969 -51.29827148 100.47167969 -51.97827148 100.47167969 C-52.10451401 101.77264587 -52.23075653 103.07361206 -52.36082458 104.41400146 C-52.89079141 109.15957486 -53.79597713 113.74289855 -54.85742188 118.39453125 C-55.04677999 119.24228874 -55.23613811 120.09004623 -55.43123436 120.96349335 C-56.05810746 123.76417331 -56.69193417 126.56322875 -57.32592773 129.36230469 C-57.77438461 131.35817239 -58.22246049 133.35412574 -58.67018127 135.35015869 C-59.8715635 140.69951207 -61.07936967 146.04739504 -62.28882599 151.39492798 C-63.04243644 154.72904577 -63.79431462 158.06354941 -64.54559326 161.39819336 C-72.91715324 198.55486394 -81.38601569 235.68816416 -90.10650635 272.7645874 C-90.97378693 276.45260957 -91.83912252 280.14108454 -92.7043457 283.82958984 C-94.05789207 289.59385233 -95.41972869 295.35609458 -96.78875732 301.11669922 C-97.27434736 303.16200238 -97.75823483 305.20771085 -98.24005127 307.25390625 C-100.78355325 318.038447 -103.53856429 328.74045461 -106.60327148 339.38964844 C-107.02927391 340.8841729 -107.02927391 340.8841729 -107.46388245 342.40888977 C-110.96107676 354.3374283 -116.07184328 366.48578447 -127.42749023 372.84277344 C-132.76940259 375.20695823 -137.17419631 375.90161118 -142.97827148 375.47167969 C-144.42105524 369.92045909 -145.61383103 364.38562547 -146.61401367 358.73925781 C-146.76382187 357.90547607 -146.91363007 357.07169434 -147.06797791 356.21264648 C-148.62258818 347.52987278 -150.13671657 338.83986622 -151.64770508 330.14941406 C-152.36303589 326.04297854 -153.09102224 321.9391007 -153.83032227 317.83691406 C-154.72866395 312.85149657 -155.60374483 307.86249178 -156.46317291 302.870224 C-156.79173084 300.98409361 -157.12810171 299.09930467 -157.47292328 297.21607971 C-159.64640544 285.30367995 -160.21960856 275.41094908 -157.97827148 263.47167969 C-157.75667787 262.14155967 -157.53882212 260.81081197 -157.32455444 259.47949219 C-156.62302526 255.17217616 -155.85946329 250.8769527 -155.09155273 246.58105469 C-154.79850669 244.92531599 -154.50571472 243.26953231 -154.21315002 241.6137085 C-153.41350114 237.09702515 -152.60772344 232.5814576 -151.79976654 228.06625366 C-151.28723648 225.20192395 -150.77566762 222.33742377 -150.26422119 219.47290039 C-147.74642616 205.38056432 -145.20533474 191.29247574 -142.65450287 177.20608521 C-142.07445784 174.00285713 -141.49476232 170.79956599 -140.91514605 167.59626031 C-138.01325983 151.5613066 -135.0959539 135.52924865 -132.15206623 119.50194931 C-131.89534458 118.10420642 -131.63863165 116.70646192 -131.38192749 115.30871582 C-131.19190844 114.27410591 -131.19190844 114.27410591 -130.99805063 113.21859479 C-130.1098076 108.3787456 -129.22814017 103.53772679 -128.34927368 98.69616699 C-127.15128271 92.09746595 -125.93911564 85.50151302 -124.71796989 78.90705109 C-124.26912407 76.47177601 -123.82462277 74.03569528 -123.38495064 71.59874725 C-118.97636581 47.19812407 -113.18462642 24.92495243 -96.97827148 5.47167969 C-96.02307617 4.30958984 -96.02307617 4.30958984 -95.04858398 3.12402344 C-85.19426447 -7.81386233 -67.98204858 -10.79820165 -53.85327148 -12.40332031 C-36.46626845 -13.29775836 -13.00111816 -12.89161246 0 0 Z " fill="#0C6BBA" transform="translate(617.978271484375,18.5283203125)"/>
<path d="M0 0 C-2.82559788 1.88373192 -5.54964587 3.20254938 -8.625 4.625 C-18.34208173 9.48941576 -25.44406676 15.49165918 -29 26 C-31.03199177 34.76044133 -29.74092809 42.2704485 -25.375 50.0625 C-15.71536055 65.03725207 0.39788594 72.57611231 16 80 C17.30479309 80.62998969 18.60948114 81.26019699 19.9140625 81.890625 C27.24070396 85.40385384 34.63746044 88.73054743 42.08837891 91.97167969 C63.92746123 101.47728662 85.84709451 111.25513299 104 127 C104.84046875 127.71929687 105.6809375 128.43859375 106.546875 129.1796875 C129.6414578 149.40494334 139.84932899 173.70300833 142 204 C143.5201074 231.61011398 136.54645651 259.69168751 117.97436523 280.69946289 C115.70534336 283.19134564 113.36617647 285.59967957 111 288 C110.28199219 288.73089844 109.56398437 289.46179688 108.82421875 290.21484375 C90.7495787 307.40447318 64.90288841 315.79840302 40.9375 320.25 C40.12531006 320.40106201 39.31312012 320.55212402 38.47631836 320.70776367 C21.88578915 323.56719871 5.37181983 324.37609115 -11.4375 324.3125 C-12.44202209 324.31067719 -13.44654419 324.30885437 -14.48150635 324.30697632 C-99.95322058 324.04677942 -99.95322058 324.04677942 -121 303 C-122.36199015 286.07211335 -121.64466441 269.04229304 -111.75 254.75 C-106.44430543 249.44430543 -99.97785502 246.89426777 -92.5 246.75390625 C-83.58078052 246.83830126 -74.78609883 248.53360989 -66 249.9375 C-50.29451904 252.4155838 -35.10161001 254.20181416 -19.18603516 254.24023438 C-16.76820278 254.24992703 -14.35122754 254.28104471 -11.93359375 254.3125 C6.53041318 254.43851366 26.82898437 251.58252696 40.77734375 238.30859375 C46.08223056 232.51083237 48.90927007 225.94478097 49.0546875 218.01953125 C48.32769905 205.04436775 43.35162662 196.88331355 34 188 C16.34951862 173.03485335 -6.54614225 164.38619142 -27.60424805 155.51220703 C-56.56213554 143.29137477 -92.60525077 127.19386424 -107 97 C-113.61004406 80.3901457 -113.33771715 62.41761165 -107.19140625 45.6796875 C-100.03051128 29.57354341 -85.74154381 20.88072455 -69.89453125 14.43359375 C-48.54798813 6.39068883 -22.96882451 -0.91875298 0 0 Z " fill="#1C3A8F" transform="translate(141,74)"/>
<path d="M0 0 C24.43558346 1.16359921 24.43558346 1.16359921 31.5 2.75 C32.31839355 2.9248291 33.13678711 3.0996582 33.97998047 3.27978516 C51.29982995 7.16234933 67.53197699 15.14925978 77.8125 30.125 C85.06687976 42.3013821 87.15205639 55.24390473 87.14044189 69.19436646 C87.14341302 70.31415197 87.14638414 71.43393749 87.1494453 72.5876559 C87.15810957 76.33595138 87.15963863 80.08421484 87.16113281 83.83251953 C87.1657626 86.52178598 87.17076718 89.21104956 87.17617798 91.90031433 C87.1897317 99.2042571 87.19578141 106.50819436 87.20018864 113.81214762 C87.20295611 118.37743018 87.20719438 122.94271065 87.21169281 127.50799179 C87.22388167 140.16132791 87.2341817 152.81466236 87.2375679 165.46800423 C87.23789725 166.68161964 87.23789725 166.68161964 87.23823325 167.91975253 C87.23845153 168.73070556 87.23866981 169.54165858 87.2388947 170.37718594 C87.23933816 172.0203375 87.23978472 173.66348906 87.24023438 175.30664062 C87.24056652 176.5292164 87.24056652 176.5292164 87.24090537 177.77649067 C87.24485112 190.97516913 87.26230002 204.1737923 87.2855939 217.37244941 C87.30934587 230.94079488 87.3217715 244.50911266 87.32293582 258.07747924 C87.32385043 265.68854592 87.32954853 273.29954056 87.34775543 280.91058731 C87.36320844 287.39300702 87.36824638 293.87533241 87.36001733 300.35776706 C87.3561291 303.66069205 87.35860573 306.96338909 87.37107468 310.26629829 C87.44385871 330.75400221 87.15957571 348.09875185 72.3203125 363.74609375 C52.78351106 382.72376114 25.86030575 383.87563888 0 385 C0 333.52 0 282.04 0 229 C-11.55 228.67 -23.1 228.34 -35 228 C-41.22863599 227.54287391 -47.37619825 227.06721854 -53.5625 226.3125 C-54.2918576 226.22763336 -55.02121521 226.14276672 -55.77267456 226.05532837 C-86.18643021 222.48427435 -122.01752635 215.5828125 -143.28125 191.40625 C-152.25400822 179.75505649 -156 167.54769016 -156 153 C-104.52 153 -53.04 153 0 153 C0 102.51 0 52.02 0 0 Z " fill="#0B6FBD" transform="translate(1495,7)"/>
<path d="M0 0 C16.72141361 14.68017081 25.81183238 33.63218212 33.0234375 54.30078125 C33.54833968 55.78134717 34.07400684 57.26164204 34.6003418 58.74169922 C36.15006174 63.11097512 37.68406555 67.48565986 39.2166748 71.86096191 C40.46642898 75.42267271 41.72144283 78.98251469 42.97753906 82.54199219 C45.63135882 90.06307762 48.27901339 97.58631605 50.92276382 105.11094666 C51.64899317 107.17736234 52.37590734 109.24353625 53.10287476 111.30969238 C54.47243178 115.20372732 55.83617684 119.09977352 57.19921875 122.99609375 C57.61732819 124.18403534 58.03543762 125.37197693 58.46621704 126.59591675 C58.84515106 127.68204254 59.22408508 128.76816833 59.61450195 129.88720703 C59.94835403 130.84007599 60.28220612 131.79294495 60.62617493 132.77468872 C61.3359375 135.05078125 61.3359375 135.05078125 61.3359375 137.05078125 C42.09826699 145.2438157 22.6401617 151.04956799 2.2109375 155.48828125 C1.01919922 155.74754395 -0.17253906 156.00680664 -1.40039062 156.27392578 C-6.60355105 157.36228093 -11.32829041 158.18583278 -16.6640625 158.05078125 C-23.36927163 138.51357271 -29.40994569 118.78773545 -35.41174316 99.02636719 C-36.6836302 94.84108905 -37.95918055 90.6569276 -39.234375 86.47265625 C-41.71441822 78.33308779 -44.19056471 70.19234116 -46.6640625 62.05078125 C-48.29201915 66.86462622 -49.89424177 71.66961539 -51.2578125 76.56640625 C-56.53907258 95.24146547 -62.24096935 113.78098136 -68.00643921 132.31089783 C-68.66547426 134.43032139 -69.32324416 136.55013402 -69.98071289 138.67004395 C-71.02778148 142.04512813 -72.07832796 145.41911006 -73.13169861 148.79223251 C-73.71764958 150.67064613 -74.3008022 152.54993193 -74.88391113 154.42922974 C-75.23546265 155.55134857 -75.58701416 156.67346741 -75.94921875 157.82958984 C-76.41146851 159.31149307 -76.41146851 159.31149307 -76.88305664 160.82333374 C-77.6640625 163.05078125 -77.6640625 163.05078125 -78.6640625 164.05078125 C-83.44883992 164.31581035 -88.24759636 164.24435999 -93.0390625 164.23828125 C-93.75502594 164.23834167 -94.47098938 164.2384021 -95.20864868 164.23846436 C-105.28369377 164.22638514 -115.30024058 163.92614783 -125.3515625 163.17578125 C-126.40456543 163.09739014 -127.45756836 163.01899902 -128.54248047 162.93823242 C-135.97525432 162.32188776 -143.30690046 161.26517863 -150.6640625 160.05078125 C-149.74637781 164.61947368 -148.82237701 169.18683199 -147.89306641 173.75317383 C-147.57924853 175.29939067 -147.26701485 176.84593009 -146.95654297 178.39282227 C-145.09255752 187.67353948 -143.02615503 196.81252708 -140.40722656 205.91186523 C-139.72022054 208.81358546 -139.3118799 211.09420671 -139.6640625 214.05078125 C-142.12109375 216.19140625 -142.12109375 216.19140625 -145.4765625 218.30078125 C-146.67560951 219.08221779 -147.87218497 219.86745831 -149.06640625 220.65625 C-149.67081543 221.05247559 -150.27522461 221.44870117 -150.89794922 221.85693359 C-164.46200904 231.02589303 -172.23732587 241.81305472 -179.6640625 256.05078125 C-180.14617188 256.92863281 -180.62828125 257.80648438 -181.125 258.7109375 C-183.69307848 264.02012103 -184.02721216 269.05350867 -184.1015625 274.86328125 C-184.1171521 275.95854126 -184.1171521 275.95854126 -184.13305664 277.07592773 C-184.05805211 281.56637122 -183.4467513 284.50090255 -180.6640625 288.05078125 C-177.59689126 290.34660988 -177.59689126 290.34660988 -174.6640625 292.05078125 C-175.0466487 296.33574675 -175.49465614 299.91747572 -177.2265625 303.86328125 C-179.17664652 308.69526283 -179.54528065 313.91898146 -178.6640625 319.05078125 C-174.89395586 321.56418567 -172.02265602 321.7698758 -167.6640625 321.05078125 C-161.85423381 318.91403574 -156.37203591 316.10710863 -152.6640625 311.05078125 C-151.34556418 307.78764842 -150.49121386 304.46748033 -149.6640625 301.05078125 C-149.3959375 299.97957031 -149.1278125 298.90835937 -148.8515625 297.8046875 C-148.3290164 295.71199087 -147.81526039 293.61706923 -147.3125 291.51953125 C-146.6640625 289.05078125 -146.6640625 289.05078125 -145.6640625 287.05078125 C-145.15903907 281.52036073 -144.92598993 276.64047601 -147.2890625 271.55078125 C-149.6092043 268.90154085 -149.6092043 268.90154085 -152.8515625 267.05078125 C-155.6640625 265.05078125 -155.6640625 265.05078125 -156.56640625 262.39453125 C-156.69322033 258.05241721 -155.14440121 255.20742217 -153.0390625 251.55078125 C-152.69488281 250.91269531 -152.35070312 250.27460938 -151.99609375 249.6171875 C-148.64212314 243.56518888 -144.88917084 238.47029051 -138.9765625 234.67578125 C-138.20957031 234.17304688 -137.44257812 233.6703125 -136.65234375 233.15234375 C-134.6640625 232.05078125 -134.6640625 232.05078125 -132.6640625 232.05078125 C-132.40302734 232.79948486 -132.14199219 233.54818848 -131.87304688 234.31958008 C-130.86815834 237.19235578 -129.85857061 240.06342102 -128.84506226 242.9331665 C-128.39167797 244.21816505 -127.93954603 245.50360616 -127.48867798 246.78948975 C-124.9198559 254.10275125 -122.21122516 261.27088565 -118.94360352 268.30810547 C-113.89585396 279.25223137 -113.89585396 279.25223137 -115.2265625 284.23828125 C-115.99195575 285.86545061 -116.81211246 287.4672131 -117.6640625 289.05078125 C-118.44227735 290.95801245 -119.21997015 292.86547022 -119.98974609 294.77612305 C-125.08714673 307.12107432 -132.08444073 317.8226732 -140.6640625 328.05078125 C-141.4271875 329.06140625 -142.1903125 330.07203125 -142.9765625 331.11328125 C-162.1918689 352.11605801 -190.70337095 363.03269786 -218.6640625 365.05078125 C-223.99974871 365.22745175 -229.32793273 365.1769972 -234.6640625 365.05078125 C-232.47265121 357.34645949 -229.84697153 349.84575413 -227.078125 342.33203125 C-226.38906469 340.45046077 -225.70000624 338.5688896 -225.01101971 336.6872921 C-224.27821553 334.68764083 -223.54402203 332.68850478 -222.80941772 330.68951416 C-220.46837307 324.31865225 -218.1361989 317.94454081 -215.80332756 311.57068253 C-215.26866366 310.1100177 -214.73388945 308.64939326 -214.19900703 307.18880844 C-208.7095566 292.19895516 -203.27531504 277.18953047 -197.8515625 262.17578125 C-191.14633418 243.62195545 -184.38809409 225.08878226 -177.56845093 206.57672119 C-171.37347758 189.75635262 -165.25579866 172.90879192 -159.1640625 156.05078125 C-152.35634656 137.21139868 -145.50051033 118.39100304 -138.57485962 99.59466553 C-132.9651496 84.36591167 -127.41736351 69.1153722 -121.90429115 53.85141468 C-120.32692895 49.48604057 -118.74260377 45.12323666 -117.15527344 40.76147461 C-111.81649437 26.09496337 -111.81649437 26.09496337 -106.67085266 11.35998535 C-105.52906866 8.02322647 -104.36356437 4.69505251 -103.19424438 1.36785889 C-102.6819564 -0.11255621 -102.18214725 -1.5973603 -101.69613647 -3.08660889 C-98.15942607 -13.92042356 -98.15942607 -13.92042356 -94.51538086 -16.42749023 C-92.19648146 -17.24659432 -90.10217675 -17.66844787 -87.6640625 -17.94921875 C-86.66503906 -18.19027344 -85.66601562 -18.43132813 -84.63671875 -18.6796875 C-54.8218418 -23.36202388 -23.78553721 -19.92132533 0 0 Z " fill="#0D69B8" transform="translate(1052.6640625,26.94921875)"/>
<path d="M0 0 C1.26714844 0.00491455 2.53429687 0.0098291 3.83984375 0.01489258 C25.3132039 0.28330958 46.40396623 5.81625862 62.4140625 20.98828125 C69.62044706 28.56389752 74.98156968 36.35328945 79.5 45.75 C80.03560547 46.85661987 80.03560547 46.85661987 80.58203125 47.9855957 C85.9127752 59.62648209 88.32815819 72.04720502 90.3762207 84.60522461 C90.62496742 86.09243107 90.87441662 87.57952018 91.12449932 89.06650257 C91.80073091 93.10005234 92.46686377 97.13521029 93.13105202 101.17075825 C93.84756566 105.51372943 94.5732488 109.85517012 95.29760742 114.19683838 C96.70229985 122.62606206 98.09782901 131.05677788 99.4898783 139.48809779 C100.61529709 146.3035127 101.74430161 153.11832511 102.87557983 159.93276978 C111.90319174 214.318732 120.80423 268.72498303 129.56026793 323.15532923 C129.938864 325.50847788 130.31766138 327.86159404 130.6965065 330.21470261 C132.12405644 339.08272473 133.54840565 347.95125129 134.96743774 356.82064056 C135.39348826 359.48355826 135.82045047 362.14632711 136.24822998 364.80896759 C136.8257999 368.40767411 137.40033495 372.00685083 137.97387695 375.60620117 C138.22823753 377.18630934 138.22823753 377.18630934 138.4877367 378.79833889 C138.63928557 379.75383161 138.79083445 380.70932432 138.94697571 381.69377136 C139.07891988 382.51954272 139.21086405 383.34531408 139.34680653 384.19610882 C139.625 386.3125 139.625 386.3125 139.625 389.3125 C117.41633301 390.33927056 95.17564248 384.03507041 78.0234375 369.51953125 C58.34405171 351.41065019 50.49496329 328.598018 44.39453125 303.21875 C43.9229619 301.29688756 43.45031569 299.37528908 42.97668457 297.45393372 C41.71290899 292.3144213 40.46401577 287.17140151 39.21799088 282.02756119 C37.89085063 276.56069767 36.5494502 271.09733316 35.2097168 265.63354492 C32.76127365 255.63928416 30.32455386 245.6422129 27.8940382 235.64357853 C25.67372672 226.50991632 23.44564569 217.37816694 21.21494293 208.24703789 C18.66933908 197.82628385 16.12643103 187.4048798 13.59082031 176.98168945 C8.45766595 155.88470898 3.29309035 134.79554789 -1.890625 113.7109375 C-2.05389542 113.04680934 -2.21716584 112.38268117 -2.38538384 111.69842792 C-5.8219039 97.72000422 -9.26039508 83.74206613 -12.70109749 69.76467133 C-13.92643319 64.78637328 -15.15118964 59.80793282 -16.37586212 54.82947159 C-17.2158539 51.4158594 -18.05672858 48.00246555 -18.89764404 44.58908081 C-20.39700237 38.49856636 -21.88888389 32.40625849 -23.375 26.3125 C-23.6219524 25.30167484 -23.8689048 24.29084969 -24.12334061 23.24939346 C-24.83891224 20.31345426 -25.54937241 17.37632908 -26.25805664 14.4387207 C-26.47302764 13.55811824 -26.68799864 12.67751577 -26.90948391 11.77022839 C-27.10327161 10.96198274 -27.29705931 10.15373709 -27.49671936 9.32099915 C-27.66718308 8.61591878 -27.83764681 7.91083841 -28.0132761 7.18439198 C-28.375 5.3125 -28.375 5.3125 -28.375 2.3125 C-18.84214329 0.72247702 -9.67068464 -0.04469971 0 0 Z " fill="#115DAE" transform="translate(327.375,4.6875)"/>
<path d="M0 0 C25.12278936 1.14194497 48.30863938 2.42114477 68 19 C68.71671875 19.56976562 69.4334375 20.13953125 70.171875 20.7265625 C82.17913041 31.29108567 86.71132422 48.44281622 87.80513954 63.78186607 C88.32442401 73.47325995 88.14757136 83.20399483 88.14526367 92.90551758 C88.14825951 95.42331492 88.15166301 97.9411118 88.15544128 100.45890808 C88.16332938 106.56325605 88.16649399 112.66758982 88.16705366 118.77194241 C88.16753093 123.73907818 88.1695961 128.7062108 88.17275429 133.67334557 C88.18154731 147.79257296 88.18617565 161.91179279 88.18542381 176.03102294 C88.18538386 176.79011399 88.1853439 177.54920503 88.18530273 178.33129883 C88.18526185 179.09132895 88.18522097 179.85135908 88.18517885 180.63442042 C88.18477251 192.94799747 88.19434266 205.26154393 88.2084411 217.57511214 C88.22284236 230.25434227 88.22970926 242.93355751 88.22884732 255.61279601 C88.2285167 262.71691698 88.2312044 269.82100585 88.24202538 276.9251194 C88.25214199 283.60894293 88.25175694 290.29268777 88.24450874 296.97651863 C88.24346817 299.41928456 88.24579421 301.86205479 88.2518692 304.30481339 C88.35064518 346.79877034 88.35064518 346.79877034 75 362 C74.49984375 362.59296875 73.9996875 363.1859375 73.484375 363.796875 C58.61721621 380.10744726 34.08791438 383.40627273 13.1875 384.88671875 C8.79427801 385.04285041 4.39599551 385 0 385 C0 257.95 0 130.9 0 0 Z " fill="#067FCB" transform="translate(1249,7)"/>
<path d="M0 0 C0 127.05 0 254.1 0 385 C-22.15740741 385 -22.15740741 385 -28.75 383.8125 C-29.52601562 383.68012939 -30.30203125 383.54775879 -31.1015625 383.41137695 C-49.09388565 380.12814667 -66.5088263 372.97667121 -77.375 357.5625 C-84.64213692 345.69694876 -86.31502106 333.15320949 -86.25396729 319.43887329 C-86.25708727 318.34002253 -86.26020725 317.24117177 -86.26342177 316.1090225 C-86.27133914 312.4614602 -86.26510262 308.81406717 -86.25878906 305.16650391 C-86.26150173 302.53723555 -86.26506422 299.90796795 -86.26940918 297.27870178 C-86.27826719 290.89881447 -86.27639709 284.51897442 -86.2705839 278.13908531 C-86.26605241 272.94927047 -86.26546091 267.75946881 -86.26763153 262.56965256 C-86.267938 261.82874838 -86.26824446 261.08784421 -86.26856022 260.32448839 C-86.26919972 258.81895404 -86.26984815 257.31341968 -86.2705054 255.80788533 C-86.27619838 241.71473282 -86.26966745 227.6216064 -86.25890467 213.52845816 C-86.2499738 201.46101633 -86.25151937 189.39361301 -86.26074219 177.32617188 C-86.2714695 163.28379476 -86.27564526 149.24144048 -86.26951766 135.19905984 C-86.26888062 133.69869956 -86.26825188 132.19833927 -86.26763153 130.69797897 C-86.2671687 129.59092521 -86.2671687 129.59092521 -86.26669653 128.46150673 C-86.26497668 123.2847125 -86.26786937 118.10793287 -86.27259064 112.9311409 C-86.27822706 106.61247121 -86.27662556 100.29385115 -86.26602915 93.97518708 C-86.26080875 90.75721363 -86.25974781 87.53933875 -86.26532745 84.32136345 C-86.31573538 52.28288318 -86.31573538 52.28288318 -81.3125 39.6875 C-81.05267334 39.01726807 -80.79284668 38.34703613 -80.52514648 37.65649414 C-78.21656473 31.9950865 -75.200051 27.4596568 -71 23 C-70.46761719 22.39027344 -69.93523437 21.78054687 -69.38671875 21.15234375 C-51.866456 2.1267601 -24.10805607 0 0 0 Z " fill="#0D68B7" transform="translate(2069,7)"/>
<path d="M0 0 C18.7037037 0 18.7037037 0 25.5 1.1875 C26.28697266 1.31987061 27.07394531 1.45224121 27.88476562 1.58862305 C46.84797824 4.98499087 64.35706628 12.02713233 76.171875 27.921875 C83.74953846 40.16271597 86.15214488 52.96095165 86.14044189 67.11880493 C86.14341302 68.24252514 86.14638414 69.36624535 86.1494453 70.52401769 C86.15812077 74.29157272 86.15963958 78.05909593 86.16113281 81.82666016 C86.16576181 84.52725372 86.17076618 87.2278444 86.17617798 89.92843628 C86.18974045 97.26749398 86.19578286 104.6065462 86.20018864 111.94561434 C86.20295477 116.53182242 86.20719282 121.11802841 86.21169281 125.70423508 C86.2238831 138.41243418 86.23418266 151.12063162 86.2375679 163.82883644 C86.23789725 165.04808329 86.23789725 165.04808329 86.23823325 166.29196139 C86.23856067 167.51405869 86.23856067 167.51405869 86.2388947 168.76084483 C86.23933816 170.41168952 86.23978472 172.06253421 86.24023438 173.71337891 C86.2404558 174.53224785 86.24067723 175.35111679 86.24090537 176.19479994 C86.2448512 189.45564942 86.26229971 202.71644387 86.2855939 215.97727211 C86.30933934 229.60547174 86.32177122 243.2336438 86.32293582 256.86186445 C86.32385082 264.50812553 86.32955895 272.15431492 86.34775543 279.80055618 C86.36319962 286.3130388 86.36825155 292.82542757 86.36001733 299.33792503 C86.35612589 302.65695335 86.35861725 305.97564017 86.37107468 309.2946701 C86.38382051 312.90303852 86.3779025 316.51092763 86.36749268 320.11929321 C86.37957728 321.67157558 86.37957728 321.67157558 86.39190602 323.25521719 C86.29619022 337.5128459 82.16408533 349.90037584 72.25 360.3125 C52.7651588 378.63752922 25.32600027 379.84881817 0 381 C0 255.27 0 129.54 0 0 Z " fill="#0E67B6" transform="translate(1613,9)"/>
<path d="M0 0 C-0.63971113 8.29398885 -2.6082009 16.18245369 -4.62109375 24.2265625 C-4.99630318 25.74367123 -5.37104167 27.26089649 -5.74534607 28.77822876 C-6.75717944 32.87292909 -7.77651798 36.96572578 -8.79763031 41.05812073 C-9.66033322 44.51891008 -10.51906085 47.98068132 -11.37794113 51.44242096 C-14.2373539 62.96527171 -17.11468225 74.48361115 -20 86 C-20.19886559 86.79382584 -20.39773117 87.58765167 -20.60262299 88.40553284 C-26.33629189 111.28707805 -32.14379543 134.1495258 -38 157 C-38.20530838 157.80134621 -38.41061676 158.60269241 -38.62214661 159.42832184 C-69.77263218 281.00075296 -69.77263218 281.00075296 -83.25 325.0625 C-83.45747864 325.74132233 -83.66495728 326.42014465 -83.87872314 327.11953735 C-86.14218412 334.47987056 -88.56958188 341.78275032 -91.08984375 349.05859375 C-91.3299115 349.76170181 -91.56997925 350.46480988 -91.81732178 351.18922424 C-95.8326776 362.61743238 -103.34440926 373.85314712 -114.375 379.5 C-118.43985621 381.18200947 -121.33023526 382.12564876 -125.6875 382.0625 C-126.49574219 382.05347656 -127.30398438 382.04445313 -128.13671875 382.03515625 C-129.05904297 382.01775391 -129.05904297 382.01775391 -130 382 C-132.15000679 369.79901529 -134.27275532 357.59361882 -136.3620472 345.38208199 C-137.33331244 339.71019826 -138.31344801 334.04016615 -139.31494141 328.37353516 C-140.28341815 322.891715 -141.22717381 317.40613072 -142.15484238 311.91726303 C-142.51064698 309.83732003 -142.87492502 307.7588059 -143.24832535 305.68194962 C-145.43760925 293.46855491 -146.4498028 282.63671337 -144.39258957 270.36886215 C-143.97244738 267.83374912 -143.60428902 265.29463903 -143.24453735 262.75027466 C-142.39632372 256.79593045 -141.48845078 250.85136365 -140.578125 244.90625 C-140.23767039 242.6650773 -139.89750899 240.42386005 -139.55761719 238.18260193 C-138.64824508 232.1935061 -137.73412964 226.20514482 -136.81837463 220.21702194 C-136.24792258 216.48641424 -135.67823509 212.75569052 -135.10876465 209.02493286 C-133.55733819 198.86251839 -132.00495751 188.70025192 -130.44781494 178.53871155 C-128.42115066 165.31173985 -126.40388695 152.08345457 -124.40755081 138.85186958 C-123.14264043 130.47005477 -121.86890772 122.08961692 -120.58768845 113.71027946 C-119.8488553 108.87616779 -119.11431785 104.04149986 -118.39074707 99.20507812 C-117.71711398 94.70375298 -117.03089057 90.20452338 -116.33517456 85.70656013 C-116.08678201 84.086551 -115.84278413 82.46585981 -115.60391235 80.84441948 C-113.63743123 67.5235462 -110.44425678 54.79025861 -104.1875 42.75 C-103.8476709 42.08726074 -103.5078418 41.42452148 -103.15771484 40.74169922 C-93.53650626 22.45209635 -79.10557931 8.95776398 -59.47265625 2.03125 C-40.25646778 -3.67524466 -19.63803891 -3.52477622 0 0 Z " fill="#0879C6" transform="translate(832,10)"/>
<path d="M0 0 C24.46724892 1.16510709 24.46724892 1.16510709 31.5625 2.75 C32.38347168 2.9248291 33.20444336 3.0996582 34.05029297 3.27978516 C51.46366534 7.18946998 67.47093312 16.19724814 77.4375 31.30859375 C87.30496336 48.30529939 88.15319816 66.81611706 88.14526367 85.98217773 C88.14826373 87.44739364 88.15166817 88.91260876 88.15544128 90.37782288 C88.16420304 94.32468171 88.16661617 98.27151879 88.16725707 102.21838641 C88.16797245 104.69642084 88.170116 107.1744499 88.17275429 109.65248299 C88.18198442 118.33269724 88.18609243 127.01289623 88.18530273 135.69311523 C88.18470375 143.7261585 88.19522624 151.75913424 88.2110464 159.79216045 C88.22422089 166.73450226 88.22948246 173.67682227 88.22884732 180.61917645 C88.22859507 184.74503243 88.23129211 188.87082839 88.24202538 192.99667168 C88.41240371 263.50459842 88.41240371 263.50459842 64.8125 288.75 C46.71896047 305.76654313 23.96134494 309 0 309 C0 207.03 0 105.06 0 0 Z " fill="#125AAB" transform="translate(1739,7)"/>
<path d="M0 0 C22.92545236 0 44.87124497 3.26170437 62.1875 19.5625 C80.74199048 39.30829003 86.14106501 64.78428638 86.16113281 91.19262695 C86.16576908 92.62108994 86.1707948 94.04955171 86.17617798 95.47801208 C86.18923306 99.34232678 86.19573433 103.20662415 86.20018864 107.07095742 C86.20313277 109.4946816 86.20724019 111.91840119 86.21169281 114.34212303 C86.22535454 121.95232408 86.23502558 129.56251447 86.2388947 137.17272693 C86.24336122 145.9062533 86.26084899 154.63962207 86.2898953 163.37310058 C86.31165573 170.15567149 86.3216067 176.93819854 86.32293582 183.72080392 C86.32397438 187.75614932 86.32967523 191.79134634 86.34775543 195.82665443 C86.48192028 227.6068116 85.12595668 262.45553669 62 287 C61.28585938 287.76699219 60.57171875 288.53398437 59.8359375 289.32421875 C43.60287335 305.31297257 21.88114149 309 0 309 C0 207.03 0 105.06 0 0 Z " fill="#0D69B8" transform="translate(2771,89)"/>
<path d="M0 0 C1.93504395 0.00406357 1.93504395 0.00406357 3.90917969 0.00820923 C25.9449615 0.0780395 47.60890952 1.26740266 69.45220947 4.13677979 C71.76200009 4.4390705 74.07290017 4.73110735 76.38427734 5.02099609 C133.56059264 12.24809264 133.56059264 12.24809264 137.75 16.4375 C138.2270145 31.46345668 130.56398176 49.5921624 120.5 60.375 C109.00783485 71.02532001 97.26534958 72.74911779 82.1953125 72.59765625 C80.75062492 72.59088467 79.30593215 72.58515161 77.86123657 72.5803833 C74.7921642 72.5688427 71.72319425 72.55179913 68.6541748 72.53042603 C61.41955889 72.48149024 54.18484368 72.46996279 46.9500885 72.45737267 C45.3297165 72.45453633 43.70934495 72.45142392 42.088974 72.4480381 C28.25925372 72.41971954 14.43313156 72.463849 0.60491943 72.69894409 C-1.42963131 72.73239934 -3.464269 72.76099975 -5.4989624 72.78421021 C-21.86695905 72.97813729 -37.94094002 74.37948408 -53.6875 79.125 C-54.5547168 79.3820874 -55.42193359 79.6391748 -56.31542969 79.90405273 C-80.47165929 87.27297138 -103.12797722 98.62785508 -123.79077148 113.11962891 C-125.00422241 113.96726807 -125.00422241 113.96726807 -126.2421875 114.83203125 C-127.29962158 115.58770386 -127.29962158 115.58770386 -128.37841797 116.35864258 C-130.25 117.4375 -130.25 117.4375 -133.25 117.4375 C-140.8318748 95.76478241 -145.66569332 75.28776469 -135.6875 53.4375 C-124.09013949 31.58533056 -100.86647577 16.79278276 -77.6796875 9.66015625 C-72.38240953 8.13875444 -67.0145956 6.95633815 -61.625 5.8125 C-60.71524414 5.61841553 -59.80548828 5.42433105 -58.86816406 5.22436523 C-55.66970555 4.57682287 -52.46476342 3.99887309 -49.25 3.4375 C-48.54351318 3.30934906 -47.83702637 3.18119812 -47.10913086 3.04916382 C-31.40633521 0.26024312 -15.91923255 -0.07849493 0 0 Z " fill="#1E3489" transform="translate(141.25,-0.43750000000000006)"/>
<path d="M0 0 C23.4707964 -0.09046366 46.94145059 -0.16407692 70.41237736 -0.20724869 C81.31152167 -0.22783121 92.21054957 -0.25586904 103.10961914 -0.30175781 C112.61463851 -0.34175792 122.11957353 -0.3674641 131.62467474 -0.37635398 C136.65268652 -0.38154649 141.68045709 -0.39366005 146.70839119 -0.42292023 C151.45179031 -0.45029795 156.19485143 -0.45840034 160.93832207 -0.45243073 C162.66876443 -0.45352105 164.39921944 -0.46134067 166.1295929 -0.4768219 C183.4262265 -0.6238328 199.62208869 2.04342927 212.875 14.3125 C227.64547131 30.48114699 229 50.03248488 229 71 C153.43 71 77.86 71 0 71 C0 47.57 0 24.14 0 0 Z " fill="#1550A2" transform="translate(1739,321)"/>
<path d="M0 0 C1.82615176 -0.00323466 3.65230329 -0.00660012 5.47845459 -0.01008606 C9.28691198 -0.01601733 13.09534692 -0.01793268 16.90380859 -0.01733398 C20.71342804 -0.01725352 24.52292519 -0.02407863 28.33251953 -0.0378418 C54.75893369 -0.13170346 81.04615907 0.50296725 107.421875 2.16796875 C109.17494965 2.27798721 109.17494965 2.27798721 110.96343994 2.39022827 C117.51780204 2.81387236 124.06388066 3.31291806 130.609375 3.85546875 C131.59740112 3.93556183 132.58542725 4.01565491 133.60339355 4.09817505 C162.56540889 6.4572188 191.46591495 9.50545534 220.3639164 12.53528023 C226.0845719 13.13439278 231.80646875 13.7210545 237.52859497 14.30595398 C241.8899553 14.75348011 246.25047283 15.20876752 250.61071777 15.66702271 C252.59374463 15.87430613 254.57706098 16.07884035 256.56066895 16.28048706 C259.23802536 16.55360505 261.91398175 16.83766282 264.58984375 17.125 C265.36645859 17.20181 266.14307343 17.27862 266.94322205 17.35775757 C272.19318703 17.93928078 272.19318703 17.93928078 274.421875 20.16796875 C241.24013027 20.48930335 208.27603242 20.69353479 175.21728516 17.44061279 C168.55474051 16.79079648 161.88881981 16.17565084 155.22351074 15.5549469 C149.37878256 15.01016324 143.53511791 14.45789738 137.69335938 13.88208008 C96.67111512 9.89406071 56.9151935 11.44252025 16.26400757 17.62630844 C12.20433174 18.24018319 8.14206245 18.83644234 4.08007812 19.43481445 C-9.22210339 21.39878171 -22.51799716 23.40440969 -35.81393051 25.41016197 C-47.9007679 27.23349518 -59.98848939 29.0507737 -72.078125 30.85546875 C-73.00397903 30.99375847 -73.92983307 31.13204819 -74.88374329 31.2745285 C-107.26351463 36.10606691 -139.67529752 40.29339606 -172.21334839 43.89732361 C-180.67142052 44.83455356 -189.12228426 45.82010613 -197.5703125 46.84375 C-226.85381076 50.37800897 -256.14176084 53.25412296 -285.578125 55.16796875 C-286.50451782 55.22855469 -287.43091064 55.28914063 -288.38537598 55.3515625 C-375.01545266 60.91591909 -462.77462598 57.01249511 -659.578125 35.16796875 C-659.578125 34.50796875 -659.578125 33.84796875 -659.578125 33.16796875 C-647.18651745 33.03745445 -634.83403417 33.435659 -622.453125 33.91796875 C-621.36487427 33.95920868 -620.27662354 34.00044861 -619.15539551 34.04293823 C-604.09831599 34.61811899 -589.05304032 35.33305838 -574.0078125 36.15625 C-573.20907085 36.19989622 -572.41032921 36.24354244 -571.58738327 36.28851128 C-569.96100017 36.37740587 -568.33461862 36.46632884 -566.7082386 36.55527973 C-517.07290657 39.26990004 -467.54956177 41.09995564 -417.83929443 39.28582764 C-414.31440837 39.15843801 -410.78930441 39.03847927 -407.26416016 38.91845703 C-348.13124483 36.85863627 -289.71664706 30.21523589 -231.01635742 23.0390625 C-227.22976967 22.57717861 -223.4430593 22.11631387 -219.65625 21.65625 C-218.73804348 21.54459251 -217.81983696 21.43293503 -216.873806 21.31789398 C-203.83084164 19.73719482 -190.78460164 18.37202285 -177.70207214 17.16581726 C-168.69284253 16.31965581 -159.78770155 15.15777503 -150.86480713 13.66326904 C-146.79329721 12.98541029 -142.71482399 12.35160824 -138.63671875 11.71484375 C-137.3842334 11.51893143 -137.3842334 11.51893143 -136.10644531 11.31906128 C-111.77929092 7.54282773 -87.36168134 4.91424028 -62.828125 2.91796875 C-61.80889954 2.83488464 -60.78967407 2.75180054 -59.73956299 2.66619873 C-56.77466599 2.42733329 -53.8093713 2.19453005 -50.84375 1.96484375 C-50.00220367 1.89840668 -49.16065735 1.8319696 -48.29360962 1.76351929 C-32.20126016 0.55312625 -16.13470417 0.00694614 0 0 Z " fill="#0A74C1" transform="translate(1202.578125,411.83203125)"/>
<path d="M0 0 C4.47140435 2.9986588 8.28770613 6.47470468 12.14990234 10.21191406 C13.99934117 11.99936326 15.87794006 13.74948284 17.76953125 15.4921875 C20.30984788 17.83681827 22.8368598 20.19432167 25.3515625 22.56640625 C28.69086482 25.71511715 32.05857355 28.83142239 35.4375 31.9375 C39.00404235 35.21905229 42.55518009 38.51587331 46.0859375 41.8359375 C46.7879126 42.49601807 47.4898877 43.15609863 48.21313477 43.83618164 C49.56639533 45.11012562 50.91853321 46.38526376 52.26928711 47.66186523 C55.44584995 50.65293535 58.65309389 53.59009547 61.94921875 56.44921875 C66.99039104 60.8286108 71.80606443 65.43855307 76.64453125 70.0390625 C80.73980363 73.91721806 84.89552889 77.6992732 89.15527344 81.39599609 C97.57125094 88.71375314 105.58068084 96.46459111 113.5 104.3125 C114.26554199 105.0650708 115.03108398 105.8176416 115.81982422 106.59301758 C127.70200116 118.4555177 127.70200116 118.4555177 128.25 126.8125 C128.16342165 132.05530035 126.53030173 135.51220665 122.75 139.1875 C110.1659737 147.48151733 95.45283326 146.26164438 81 146 C87.31069779 160.10626499 87.31069779 160.10626499 93.8125 174.125 C96.09498281 178.9851597 98.23927096 183.85554946 100.15625 188.87109375 C100.92441087 190.80927744 101.83077863 192.69122792 102.75 194.5625 C104.73270761 200.01494591 104.73321737 204.66286964 103 210.1875 C97.88926831 217.37446644 90.01558322 220.61032304 82.0625 223.8125 C80.17763541 224.58802341 78.29347912 225.36527133 76.41015625 226.14453125 C75.17471069 226.64496948 75.17471069 226.64496948 73.91430664 227.15551758 C72.03092907 227.84855286 72.03092907 227.84855286 71 229 C68.98035801 229.07244053 66.95832876 229.08377188 64.9375 229.0625 C63.83277344 229.05347656 62.72804688 229.04445313 61.58984375 229.03515625 C60.30787109 229.01775391 60.30787109 229.01775391 59 229 C59 228.34 59 227.68 59 227 C58.29875 226.814375 57.5975 226.62875 56.875 226.4375 C51.20663201 223.603316 48.23214403 218.86907304 45.73046875 213.171875 C45.30040527 212.20258057 44.8703418 211.23328613 44.42724609 210.23461914 C43.95625488 209.16719482 43.48526367 208.09977051 43 207 C42.19508368 205.21821585 41.39009356 203.43646352 40.58255005 201.65586853 C39.44345574 199.14242904 38.31093999 196.62604735 37.1784668 194.10961914 C36.59689658 192.81875296 36.01419769 191.52839474 35.43041992 190.23852539 C34.57192784 188.34124594 33.71723576 186.44229408 32.86328125 184.54296875 C32.36094971 183.42946045 31.85861816 182.31595215 31.34106445 181.16870117 C30.06301517 178.14889384 28.99012188 175.12463977 28 172 C21.62407077 176.61270929 16.09717604 181.77080969 10.67578125 187.44921875 C5.32323871 192.5517155 1.3666744 194.6804234 -6.0625 194.5625 C-6.75666016 194.58634766 -7.45082031 194.61019531 -8.16601562 194.63476562 C-12.07401318 194.62363173 -13.80680154 194.15831174 -16.85546875 191.66015625 C-21.84166377 185.47509466 -24.11908047 181.3511449 -24.14717102 173.3910675 C-24.15084771 172.71627907 -24.1545244 172.04149063 -24.1583125 171.34625405 C-24.16934468 169.08019359 -24.17319239 166.814179 -24.17700195 164.5480957 C-24.18326701 162.92518468 -24.18991385 161.30227509 -24.19691467 159.67936707 C-24.21795433 154.34484862 -24.22831771 149.01032989 -24.23828125 143.67578125 C-24.24232899 141.83874179 -24.24644592 140.00170247 -24.25063133 138.16466331 C-24.26968365 129.5330509 -24.28391398 120.90144705 -24.2922433 112.26981765 C-24.30201302 102.31016813 -24.32832541 92.35074101 -24.36874419 82.39116985 C-24.39892046 74.69083383 -24.41371366 66.9905615 -24.41702431 59.29016751 C-24.4193733 54.69223393 -24.4283138 50.09453794 -24.45348549 45.49666786 C-24.47679735 41.16853657 -24.480987 36.84079877 -24.47072411 32.51262093 C-24.47022937 30.92759643 -24.47653142 29.34255237 -24.49028015 27.75758743 C-24.62818004 10.91228614 -24.62818004 10.91228614 -18.02734375 3.90625 C-12.20692683 -0.01029223 -6.92970685 -2.19876264 0 0 Z M-5 20 C-5 71.15 -5 122.3 -5 175 C1.6646665 170.05871058 1.6646665 170.05871058 7.5 164.5625 C10.77201129 161.21258367 14.12100612 158.07906967 17.6796875 155.0390625 C19.59488745 153.356008 21.46236699 151.64359037 23.3203125 149.8984375 C23.90586914 149.34969971 24.49142578 148.80096191 25.09472656 148.2355957 C26.26971151 147.13134833 27.4410261 146.02318077 28.60839844 144.91088867 C32.77918202 141 32.77918202 141 35 141 C35.28148392 141.66319244 35.56296783 142.32638489 35.85298157 143.00967407 C38.51376629 149.27769378 41.17638867 155.54492996 43.84104633 161.81130409 C45.21071018 165.03246823 46.57967666 168.25392492 47.94702148 171.47607422 C49.52116901 175.18546762 51.09839916 178.8935434 52.67578125 182.6015625 C53.40720085 184.32688705 53.40720085 184.32688705 54.15339661 186.08706665 C54.61364731 187.16773407 55.07389801 188.24840149 55.5480957 189.36181641 C55.9500264 190.30779694 56.35195709 191.25377747 56.7660675 192.22842407 C58.08927697 195.2005279 59.52514627 198.10055664 61 201 C68.15129696 199.12849037 74.49405457 196.50213658 81 193 C79.04456209 186.73325888 76.68861779 180.78839981 73.9453125 174.828125 C73.5618869 173.98384949 73.1784613 173.13957397 72.78341675 172.26971436 C71.5681857 169.59452058 70.34724452 166.92199595 69.125 164.25 C67.91014766 161.59217681 66.69678878 158.93372222 65.48800659 156.27313232 C64.74023038 154.62733284 63.98917019 152.98301907 63.23391724 151.34063721 C60.18626751 144.63484405 57.66049019 137.9172745 55 131 C72.16 129.35 89.32 127.7 107 126 C104.95684018 121.91368035 103.30732263 120.23509735 99.9375 117.25 C98.8478165 116.27340798 97.75934615 115.29546121 96.671875 114.31640625 C95.78725586 113.52194092 95.78725586 113.52194092 94.88476562 112.71142578 C91.44108068 109.58445279 88.06813506 106.38230167 84.6875 103.1875 C77.42833508 96.34002476 70.14309932 89.5213201 62.84277344 82.71777344 C59.72706096 79.81340764 56.61364547 76.90658137 53.5 74 C49.76228583 70.51111038 46.0243238 67.02248826 42.28515625 63.53515625 C35.84900429 57.53168678 29.41953802 51.52123416 23 45.5 C21.67059327 44.25388454 20.34116621 43.00779076 19.01171875 41.76171875 C16.28305263 39.2040535 13.55702175 36.64361168 10.83203125 34.08203125 C9.49226382 32.82543945 8.1524228 31.56892612 6.8125 30.3125 C6.20083984 29.73628906 5.58917969 29.16007812 4.95898438 28.56640625 C4.38083984 28.025 3.80269531 27.48359375 3.20703125 26.92578125 C2.7066333 26.45567627 2.20623535 25.98557129 1.69067383 25.5012207 C-0.46833615 23.58414455 -2.74539698 21.80368242 -5 20 Z " fill="#323333" transform="translate(2542,173)"/>
<path d="M0 0 C0.33 0 0.66 0 1 0 C0.85540319 1.64594243 0.70924064 3.29174731 0.5625 4.9375 C0.48128906 5.85402344 0.40007813 6.77054688 0.31640625 7.71484375 C0.1502287 9.44021804 -0.0219416 11.16567839 -0.24951172 12.8840332 C-5.7426079 55.61197753 5.35974785 101.22697309 31.4375 135.73046875 C61.00030512 173.78689519 101.35029385 198.15625324 149.44116211 204.3125 C166.97982092 206.25181265 184.33313821 205.05753202 201.7019043 202.27539062 C204.15478771 201.98145113 206.53190948 201.95414805 209 202 C209.61875 203.41152344 209.61875 203.41152344 210.25 204.8515625 C213.36953336 211.67342931 215.83495968 216.9902225 222.49609375 220.984375 C222.99238281 221.31953125 223.48867187 221.6546875 224 222 C224 222.66 224 223.32 224 224 C220.66993225 224.80581009 217.33543824 225.59174405 214 226.375 C213.08476562 226.59671875 212.16953125 226.8184375 211.2265625 227.046875 C197.5001765 230.24343064 183.93565278 231.38808489 169.875 231.3125 C168.80616074 231.30976578 168.80616074 231.30976578 167.71572876 231.30697632 C115.75050265 231.08477589 68.42199209 210.72099245 31 175 C30.14664063 174.19949219 29.29328125 173.39898437 28.4140625 172.57421875 C21.52893278 165.93886503 15.65149184 158.68916061 10 151 C9.58250488 150.43216797 9.16500977 149.86433594 8.73486328 149.27929688 C-11.04054531 121.94985478 -24.85380997 87.85752346 -27 54 C-27.12955078 52.36562988 -27.12955078 52.36562988 -27.26171875 50.69824219 C-29.00913958 26.46860619 -29.00913958 26.46860619 -24.671875 21.4453125 C-21.5561062 19.20036113 -18.47182391 17.62754525 -15 16 C-12.13605177 13.8039666 -12.13605177 13.8039666 -9.5625 11.375 C-8.35980469 10.27478516 -8.35980469 10.27478516 -7.1328125 9.15234375 C-4.32537648 6.31919861 -2.19211391 3.32352753 0 0 Z " fill="#115CAD" transform="translate(2377,178)"/>
<path d="M0 0 C2.97818377 0.46232193 5.95918288 0.90308637 8.94091797 1.34191895 C16.00912265 2.38268441 23.07360506 3.44658375 30.13623047 4.52453613 C31.29091827 4.70025146 32.44560608 4.8759668 33.63528442 5.05700684 C36.90936711 5.55979765 40.18122595 6.07498836 43.45263672 6.59484863 C44.44662476 6.74684723 45.44061279 6.89884583 46.46472168 7.05545044 C47.37411499 7.20267548 48.2835083 7.34990051 49.22045898 7.50158691 C50.41446068 7.69000656 50.41446068 7.69000656 51.63258362 7.88223267 C53.57373047 8.39953613 53.57373047 8.39953613 55.57373047 10.39953613 C34.5746372 11.3589605 14.44259759 9.49359794 -6.34423828 6.53381348 C-34.49029138 2.5762208 -58.36120126 6.80100436 -85.90383816 12.97556114 C-110.72112096 18.5364151 -135.5575196 23.77229615 -160.61376953 28.14953613 C-162.31137421 28.44962082 -162.31137421 28.44962082 -164.04327393 28.75576782 C-192.41543785 33.74251189 -220.55615657 36.62076541 -249.36376953 36.58703613 C-250.80515793 36.58612976 -250.80515793 36.58612976 -252.27566528 36.58520508 C-295.59560851 36.5118474 -346.09202008 35.74126814 -387.42626953 21.39953613 C-387.75626953 20.73953613 -388.08626953 20.07953613 -388.42626953 19.39953613 C-375.38653779 19.07542784 -362.56725853 20.00811776 -349.57958984 21.11016846 C-318.81162176 23.67904238 -288.1958092 24.50486477 -257.36376953 22.64953613 C-256.32736328 22.58814453 -255.29095703 22.52675293 -254.22314453 22.46350098 C-232.22054512 20.81330602 -210.36273311 16.47238599 -188.63867188 12.72766113 C-185.91793469 12.25879544 -183.19660185 11.79367523 -180.47460938 11.33215332 C-164.6836309 8.65435517 -148.96068951 5.79888274 -133.29483032 2.45559692 C-90.05930709 -6.75546484 -43.64217558 -6.88709274 0 0 Z " fill="#0A73C1" transform="translate(1207.42626953125,466.6004638671875)"/>
<path d="M0 0 C2 1 2 1 2.71435547 2.63549805 C2.92979004 3.33715088 3.14522461 4.03880371 3.3671875 4.76171875 C3.61098145 5.54450195 3.85477539 6.32728516 4.10595703 7.13378906 C4.35974121 7.97651367 4.61352539 8.81923828 4.875 9.6875 C5.14038574 10.5444043 5.40577148 11.40130859 5.67919922 12.28417969 C7.57844239 18.45988733 9.32747876 24.66625122 10.9453125 30.921875 C11.89367578 34.0636089 11.89367578 34.0636089 13.75390625 36.82568359 C17.02646965 42.46959098 18.88584807 48.72113009 20.9921875 54.8671875 C21.46472016 56.22914868 21.93788731 57.59088986 22.41165161 58.9524231 C23.65500627 62.53089677 24.89007982 66.11217295 26.12329102 69.69415283 C27.36001448 73.28211695 28.60398349 76.86756498 29.84765625 80.453125 C31.28424334 84.59551907 32.71992216 88.73821005 34.14959717 92.88299561 C36.08604132 98.49497945 38.02661634 104.10465473 40.03222656 109.69238281 C40.32001984 110.49507599 40.60781311 111.29776917 40.90432739 112.12478638 C41.40966834 113.52745405 41.91894461 114.92871428 42.43331909 116.32809448 C43.41692296 119.05590316 44 121.06788405 44 124 C15.29 124 -13.42 124 -43 124 C-35.40713296 108.81426592 -35.40713296 108.81426592 -32.28710938 103.03393555 C-14.77244865 70.49566984 -4.06408313 36.75872203 0 0 Z " fill="#1455A6" transform="translate(1150,268)"/>
<path d="M0 0 C0.66 0.33 1.32 0.66 2 1 C2.4453125 3.2109375 2.4453125 3.2109375 2 6 C-0.36948413 7.80326974 -2.54276942 9.19480085 -5.125 10.625 C-10.87881592 14.00986252 -16.32585716 17.54176429 -21.5625 21.6875 C-22.1085791 22.11434082 -22.6546582 22.54118164 -23.21728516 22.98095703 C-30.48111845 28.79867756 -35.9011725 34.70533765 -40.3125 42.9375 C-40.74111328 43.69740234 -41.16972656 44.45730469 -41.61132812 45.24023438 C-45.33183882 52.03698637 -47.291476 58.33816705 -47.25 66.1875 C-47.25515625 67.17105469 -47.2603125 68.15460938 -47.265625 69.16796875 C-46.98252284 72.18633742 -46.38893873 74.30979641 -45 77 C-42.02236957 79.26325246 -42.02236957 79.26325246 -39 81 C-38.505 81.495 -38.505 81.495 -38 82 C-38.04516576 87.7925082 -39.13850719 92.73783265 -41.3671875 98.0390625 C-42.44732152 101.38614447 -42.1868345 104.51242258 -42 108 C-40.58506449 108.10884119 -39.16767057 108.18597617 -37.75 108.25 C-36.96109375 108.29640625 -36.1721875 108.3428125 -35.359375 108.390625 C-31.93825667 107.82421468 -31.04009577 106.81524699 -29 104 C-27.84060973 100.87149833 -27.06985273 97.68364532 -26.3125 94.4375 C-25.89240394 92.72774735 -25.47185019 91.01810707 -25.05078125 89.30859375 C-24.87200439 88.55376709 -24.69322754 87.79894043 -24.5090332 87.02124023 C-24.08221665 85.32646121 -23.55267063 83.6580119 -23 82 C-22.50321337 77.65108098 -22.32824037 74.15542656 -24.5625 70.3125 C-26.83125773 68.07603408 -26.83125773 68.07603408 -28.82421875 66.61328125 C-29.77748047 65.87658203 -29.77748047 65.87658203 -30.75 65.125 C-31.36359375 64.69445312 -31.9771875 64.26390625 -32.609375 63.8203125 C-34.86201525 60.87163172 -34.39826401 58.61415287 -34 55 C-33.10852349 52.25157441 -31.89684337 49.74643825 -30.5625 47.1875 C-30.20414063 46.48898926 -29.84578125 45.79047852 -29.4765625 45.07080078 C-21.6185475 30.35741543 -9.09633754 22.80050139 5 15 C7 18 7 18 7 21 C5.84242188 21.59167969 4.68484375 22.18335938 3.4921875 22.79296875 C1.95292384 23.59075784 0.41387255 24.38895676 -1.125 25.1875 C-1.88554688 25.57486328 -2.64609375 25.96222656 -3.4296875 26.36132812 C-11.06695325 30.34455724 -16.17264711 34.37261244 -20.25 42.0625 C-20.58773437 42.67416016 -20.92546875 43.28582031 -21.2734375 43.91601562 C-22.19911336 45.60154746 -23.1005355 47.30033622 -24 49 C-24.40476562 49.74378906 -24.80953125 50.48757813 -25.2265625 51.25390625 C-26.56626452 54.27838505 -26.11003857 55.91655953 -25 59 C-23.06811451 60.7078375 -21.07880551 62.11452423 -18.91015625 63.5078125 C-16.698741 65.23533934 -15.92722233 66.36025479 -15 69 C-14.30720237 75.29816028 -14.55116676 81.00137502 -17.14453125 86.796875 C-18.66277185 90.70686448 -19.33081074 94.84658911 -20.15625 98.94921875 C-21.94441201 105.41474899 -25.69734535 109.17945379 -31 113 C-36.28184507 115.8810064 -40.11784223 116.5785729 -46 116 C-48.20703125 114.7890625 -48.20703125 114.7890625 -50 113 C-51.57169059 106.15852331 -49.56931716 99.77584201 -46.875 93.5078125 C-45.92336845 90.7803685 -45.62619782 88.8641985 -46 86 C-47.95890881 84.60699818 -49.9639118 83.27754554 -52 82 C-55.23231929 77.88957992 -55.54520287 74.00304667 -55.5 68.9375 C-55.49355469 68.18235107 -55.48710938 67.42720215 -55.48046875 66.64916992 C-55.25320027 59.61356579 -53.35818335 54.18655621 -50 48 C-49.40703125 46.84628906 -48.8140625 45.69257813 -48.203125 44.50390625 C-39.94372065 28.88455322 -26.93641803 17.22865067 -12 8 C-11.34 8 -10.68 8 -10 8 C-10 7.34 -10 6.68 -10 6 C-7.8828125 4.45703125 -7.8828125 4.45703125 -5.125 2.8125 C-4.22007812 2.26207031 -3.31515625 1.71164063 -2.3828125 1.14453125 C-1.59648438 0.76683594 -0.81015625 0.38914063 0 0 Z " fill="#F5F8FB" transform="translate(923,233)"/>
<path d="M0 0 C11.82211133 14.61392188 11.28325187 35.51850131 9.53515625 53.25390625 C7.35888252 71.89107019 2.53839888 92.72282088 -9 108 C-10.485 108.495 -10.485 108.495 -12 109 C-12.70241526 110.31485171 -13.36275979 111.65235497 -14 113 C-19.95999835 120.73730728 -27.0727107 126.4005655 -35 132 C-36.18335937 132.90878906 -36.18335937 132.90878906 -37.390625 133.8359375 C-49.68732969 143.07937878 -64.18770063 148.35922715 -79 152 C-79.95390625 152.24621094 -80.9078125 152.49242187 -81.890625 152.74609375 C-92.65842458 155.02874132 -104.05302866 154.17262327 -115 154 C-111.32903922 152.02470666 -108.28988265 151.55645719 -104.125 151.125 C-73.84643105 147.50986872 -40.46372812 130.52026244 -21.375 106.5 C-0.75193176 77.4929621 6.43782781 41.93618143 1 7 C0.80794553 5.67476034 0.61775989 4.34924814 0.4296875 3.0234375 C0.21699219 1.52683594 0.21699219 1.52683594 0 0 Z " fill="#006B90" transform="translate(2389,69)"/>
<path d="M0 0 C15.18226473 2.44000683 33.95830698 10.77059653 43.4140625 23.1640625 C44.16521679 24.30852929 44.90192528 25.46258874 45.625 26.625 C46.01034912 27.24109131 46.39569824 27.85718262 46.79272461 28.49194336 C52.56655648 37.97673539 55.43752557 46.76116374 54 58 C52.65973003 62.51534802 51.08705323 65.25114111 47.1875 67.9375 C44.81220065 69.72640681 44.81220065 69.72640681 44.80078125 71.95703125 C45.14504799 75.91947394 46.06269155 79.38905613 47.5625 83.0625 C49.27045573 87.32814069 49.60245237 90.40630066 49 95 C46.46546343 98.21954645 44.88702695 99.70432435 41 101 C36.30868877 101.54508569 32.89669352 101.44834676 28.625 99.3125 C23.85590036 95.11115031 22.44991451 90.6427737 20.9375 84.5625 C20.01888795 80.90649784 19.10482763 77.31149846 17.90234375 73.73828125 C16.28056367 68.81677548 16.42464646 64.75109724 18.5625 60.0625 C20.25725684 56.88176071 22.31603624 54.52383646 24.8125 51.9375 C27.26293951 49.20655662 27.950434 48.43783304 28.375 44.6875 C25.13731357 36.00461367 20.25751429 28.51077738 12 24 C9.35633036 22.91571231 6.72488206 21.92706142 4.00390625 21.0546875 C2 20 2 20 1.21484375 17.8828125 C1.14394531 17.26148438 1.07304688 16.64015625 1 16 C13.051571 18.13818195 21.8580785 22.74260292 28.984375 32.80078125 C35.29202076 42.72901568 35.29202076 42.72901568 34.83984375 48.76171875 C32.95843989 53.77587879 28.71321588 57.28678412 25 61 C21.55239207 67.89521585 24.46126018 76.94708294 26.25 84 C26.45447754 84.83716553 26.65895508 85.67433105 26.86962891 86.53686523 C27.78840319 89.95119157 28.47807266 92.41062019 30.84375 95.08203125 C33.5799769 96.24691045 35.32024886 96.11154293 38.25 95.6875 C39.14203125 95.56761719 40.0340625 95.44773437 40.953125 95.32421875 C41.96632813 95.16373047 41.96632813 95.16373047 43 95 C43.42199788 90.25252388 42.77422826 87.06681793 41 82.625 C39.14562937 77.73803046 37.49677114 73.18761332 39 68 C40.59780668 65.94152697 42.25501787 64.34776322 44.2734375 62.703125 C47.68232705 59.34050997 48.30638455 55.4577661 48.375 50.8125 C48.12289361 39.73464864 41.96801591 29.4914022 34.6640625 21.41796875 C25.02836249 12.67237006 12.02915778 8.36432028 0 4 C0 2.68 0 1.36 0 0 Z " fill="#F8FAFD" transform="translate(1137,208)"/>
<path d="M0 0 C0.495 0.99 0.495 0.99 1 2 C-5.19677322 15.6935688 -15.24449467 26.5306963 -29.16796875 32.31640625 C-43.94172377 37.382198 -56.17379281 34.81321171 -70.0625 28.3125 C-76.5943684 24.92011441 -82.26140191 20.57866869 -88 16 C-85.41199563 14.70599781 -84.50411589 15.22744368 -81.7265625 15.91796875 C-75.2713103 17.29263405 -68.95518803 17.34327147 -62.375 17.3125 C-61.13532471 17.30758545 -59.89564941 17.3026709 -58.6184082 17.29760742 C-49.37413003 17.17967257 -40.9246787 16.45478356 -32 14 C-30.78054688 13.67128906 -29.56109375 13.34257812 -28.3046875 13.00390625 C-18.1725456 9.94734152 -9.19316018 5.16482316 0 0 Z " fill="#F9FCFD" transform="translate(1094,337)"/>
<path d="M0 0 C6.47168491 4.73115747 11.14313636 9.46826859 14 17 C14 17.99 14 18.98 14 20 C13.36835937 19.81824219 12.73671875 19.63648438 12.0859375 19.44921875 C10.15281425 18.90605011 8.21467232 18.38061233 6.2734375 17.8671875 C4.20771677 17.31994406 2.14887185 16.7453498 0.1015625 16.1328125 C-13.9858339 12.4069268 -30.68106969 12.41550603 -45 15 C-43.22258622 9.13453453 -39.72345612 4.67531212 -34.5234375 1.4765625 C-24.16117691 -3.81155278 -10.61548163 -6.0659895 0 0 Z " fill="#FAFCFD" transform="translate(1101,245)"/>
<path d="M0 0 C-3.16779311 1.7839677 -6.47706032 2.82638354 -9.93847656 3.90136719 C-24.5786243 8.48453131 -37.07653612 14.84453033 -49.3046875 24.09375 C-52 26 -52 26 -54 26 C-54.76743438 17.36636322 -51.45576448 8.66815659 -46 2 C-32.80284217 -12.20996296 -15.29487693 -9.7331035 0 0 Z " fill="#F9FCFD" transform="translate(1017,265)"/>
<path d="M0 0 C3 5.03571429 3 5.03571429 3 8 C-0.28893003 9.50605402 -3.58157446 11.00380532 -6.875 12.5 C-7.81214844 12.92925781 -8.74929687 13.35851562 -9.71484375 13.80078125 C-10.61074219 14.20683594 -11.50664062 14.61289062 -12.4296875 15.03125 C-13.25710449 15.40830078 -14.08452148 15.78535156 -14.93701172 16.17382812 C-17 17 -17 17 -19 17 C-19.99 13.7 -20.98 10.4 -22 7 C-19.0893112 5.63149714 -16.17263909 4.2800313 -13.25 2.9375 C-12.425 2.54755859 -11.6 2.15761719 -10.75 1.75585938 C-9.95078125 1.39169922 -9.1515625 1.02753906 -8.328125 0.65234375 C-7.5949707 0.31195068 -6.86181641 -0.02844238 -6.10644531 -0.37915039 C-3.60289813 -1.11704104 -2.39095273 -1.02310683 0 0 Z " fill="#1062B0" transform="translate(2625,367)"/>
</svg>
